<svg width="256" height="256" viewBox="0 0 256 256" fill="none" xmlns="http://www.w3.org/2000/svg">
<rect x="10" y="10" width="236" height="236" rx="6" fill="white"/>
<path d="M58 76H63V163H58V76Z" fill="#990000"/>
<path d="M68 76H83.01V163H68V76Z" fill="#990000"/>
<path d="M88 76H103V163H88V76Z" fill="#990000"/>
<path d="M182 163H186.663L187 76H182V163ZM192 76V163H197V76H192ZM108 163H113V76H108V163ZM118 76V162.997H123V76H118Z" fill="#339966"/>
<path d="M130 163H145V76H130V163ZM150 163H155V76H150V163ZM160 76V162.997H175V76H160Z" fill="#006699"/>
<path d="M189.125 173L197 190.771H192.249L190.789 187.26H182.85L181.529 190.771H176.842L183.993 173H189.125ZM189.48 184.156L186.622 177.249L184.018 184.156H189.48ZM179.166 173V176.257H172.739V190.771H168.318V176.257H161.891V173H179.166ZM156.302 173L164.178 190.771H159.427L157.966 187.26H150.027L148.706 190.771H144.019L151.171 173H156.302ZM156.658 184.156L153.8 177.249L151.196 184.156H156.658ZM126.439 173H134.264C137.287 173 139.675 173.831 141.428 175.493C143.189 177.147 144.07 179.288 144.07 181.917C144.07 184.674 143.177 186.84 141.39 188.418C139.612 189.987 137.071 190.771 133.769 190.771H126.439V173ZM130.86 176.257V187.514H133.743C135.615 187.514 137.046 187.001 138.036 185.975C139.027 184.941 139.523 183.58 139.523 181.892C139.523 180.145 139.019 178.771 138.011 177.77C137.012 176.761 135.572 176.257 133.692 176.257H130.86ZM122.349 173V190.771H117.929V173H122.349ZM113.979 173L108.199 181.345L116.036 190.771H110.498L103.474 182.439V190.771H99.0535V173H103.474V181.001L109.114 173H113.979ZM94.9634 173V190.771H90.543V173H94.9634ZM73.1918 179.411L67.7045 191H65.7991L58 173H62.6871L66.8661 182.82L71.4262 173H74.9828L79.5429 182.82L83.6965 173H88.3836L80.6099 191H78.7046L73.1918 179.411Z" fill="#484848"/>
</svg>
